<mxfile host="app.diagrams.net" modified="2023-11-06T01:46:59.595Z" agent="Mozilla/5.0 (Windows NT 10.0; Win64; x64) AppleWebKit/537.36 (KHTML, like Gecko) Chrome/118.0.0.0 Safari/537.36" etag="G40iGVNFsTXabXF5vRPW" version="22.0.8" type="google">
  <diagram name="Page-1" id="uNzQ87DJWToN2N2YwW9R">
    <mxGraphModel grid="1" page="1" gridSize="10" guides="1" tooltips="1" connect="1" arrows="1" fold="1" pageScale="1" pageWidth="827" pageHeight="1169" math="0" shadow="0">
      <root>
        <mxCell id="0" />
        <mxCell id="1" parent="0" />
        <mxCell id="LjTkNdP1hN30SCUyjsGu-1" value="terminal" style="ellipse;whiteSpace=wrap;html=1;aspect=fixed;" vertex="1" parent="1">
          <mxGeometry x="260" y="-160" width="80" height="80" as="geometry" />
        </mxCell>
        <mxCell id="LjTkNdP1hN30SCUyjsGu-2" value="nÃ£o terminal" style="whiteSpace=wrap;html=1;aspect=fixed;" vertex="1" parent="1">
          <mxGeometry x="380" y="-160" width="80" height="80" as="geometry" />
        </mxCell>
        <mxCell id="LjTkNdP1hN30SCUyjsGu-8" style="edgeStyle=orthogonalEdgeStyle;rounded=0;orthogonalLoop=1;jettySize=auto;html=1;" edge="1" parent="1" source="LjTkNdP1hN30SCUyjsGu-3" target="LjTkNdP1hN30SCUyjsGu-4">
          <mxGeometry relative="1" as="geometry" />
        </mxCell>
        <mxCell id="LjTkNdP1hN30SCUyjsGu-3" value="program" style="ellipse;whiteSpace=wrap;html=1;aspect=fixed;" vertex="1" parent="1">
          <mxGeometry x="90" y="510" width="80" height="80" as="geometry" />
        </mxCell>
        <mxCell id="LjTkNdP1hN30SCUyjsGu-9" style="edgeStyle=orthogonalEdgeStyle;rounded=0;orthogonalLoop=1;jettySize=auto;html=1;entryX=0;entryY=0.5;entryDx=0;entryDy=0;" edge="1" parent="1" source="LjTkNdP1hN30SCUyjsGu-4" target="LjTkNdP1hN30SCUyjsGu-5">
          <mxGeometry relative="1" as="geometry" />
        </mxCell>
        <mxCell id="LjTkNdP1hN30SCUyjsGu-4" value="id" style="ellipse;whiteSpace=wrap;html=1;aspect=fixed;" vertex="1" parent="1">
          <mxGeometry x="220" y="510" width="80" height="80" as="geometry" />
        </mxCell>
        <mxCell id="LjTkNdP1hN30SCUyjsGu-10" style="edgeStyle=orthogonalEdgeStyle;rounded=0;orthogonalLoop=1;jettySize=auto;html=1;entryX=0;entryY=0.5;entryDx=0;entryDy=0;" edge="1" parent="1" source="LjTkNdP1hN30SCUyjsGu-5" target="LjTkNdP1hN30SCUyjsGu-6">
          <mxGeometry relative="1" as="geometry" />
        </mxCell>
        <mxCell id="LjTkNdP1hN30SCUyjsGu-5" value="(" style="ellipse;whiteSpace=wrap;html=1;aspect=fixed;" vertex="1" parent="1">
          <mxGeometry x="350" y="510" width="80" height="80" as="geometry" />
        </mxCell>
        <mxCell id="LjTkNdP1hN30SCUyjsGu-11" style="edgeStyle=orthogonalEdgeStyle;rounded=0;orthogonalLoop=1;jettySize=auto;html=1;entryX=0;entryY=0.5;entryDx=0;entryDy=0;" edge="1" parent="1" source="LjTkNdP1hN30SCUyjsGu-6" target="LjTkNdP1hN30SCUyjsGu-7">
          <mxGeometry relative="1" as="geometry" />
        </mxCell>
        <mxCell id="LjTkNdP1hN30SCUyjsGu-6" value=")" style="ellipse;whiteSpace=wrap;html=1;aspect=fixed;" vertex="1" parent="1">
          <mxGeometry x="480" y="510" width="80" height="80" as="geometry" />
        </mxCell>
        <mxCell id="LjTkNdP1hN30SCUyjsGu-7" value="bloco" style="whiteSpace=wrap;html=1;aspect=fixed;" vertex="1" parent="1">
          <mxGeometry x="610" y="510" width="80" height="80" as="geometry" />
        </mxCell>
        <mxCell id="LjTkNdP1hN30SCUyjsGu-26" style="edgeStyle=orthogonalEdgeStyle;rounded=0;orthogonalLoop=1;jettySize=auto;html=1;entryX=0;entryY=0.5;entryDx=0;entryDy=0;" edge="1" parent="1" source="LjTkNdP1hN30SCUyjsGu-22" target="LjTkNdP1hN30SCUyjsGu-23">
          <mxGeometry relative="1" as="geometry" />
        </mxCell>
        <mxCell id="LjTkNdP1hN30SCUyjsGu-22" value="funcao" style="whiteSpace=wrap;html=1;aspect=fixed;" vertex="1" parent="1">
          <mxGeometry x="260" width="80" height="80" as="geometry" />
        </mxCell>
        <mxCell id="LjTkNdP1hN30SCUyjsGu-23" value="funcoes&#39;" style="whiteSpace=wrap;html=1;aspect=fixed;" vertex="1" parent="1">
          <mxGeometry x="380" width="80" height="80" as="geometry" />
        </mxCell>
        <mxCell id="LjTkNdP1hN30SCUyjsGu-25" value="" style="endArrow=classic;html=1;rounded=0;entryX=0;entryY=0.5;entryDx=0;entryDy=0;" edge="1" parent="1" target="LjTkNdP1hN30SCUyjsGu-22">
          <mxGeometry width="50" height="50" relative="1" as="geometry">
            <mxPoint x="180" y="40" as="sourcePoint" />
            <mxPoint x="190" y="20" as="targetPoint" />
          </mxGeometry>
        </mxCell>
        <mxCell id="LjTkNdP1hN30SCUyjsGu-29" value="" style="endArrow=classic;html=1;rounded=0;" edge="1" parent="1">
          <mxGeometry width="50" height="50" relative="1" as="geometry">
            <mxPoint x="200" y="150" as="sourcePoint" />
            <mxPoint x="510" y="150" as="targetPoint" />
          </mxGeometry>
        </mxCell>
        <mxCell id="LjTkNdP1hN30SCUyjsGu-30" value="" style="endArrow=none;html=1;rounded=0;" edge="1" parent="1">
          <mxGeometry width="50" height="50" relative="1" as="geometry">
            <mxPoint x="200" y="150" as="sourcePoint" />
            <mxPoint x="200" y="40" as="targetPoint" />
          </mxGeometry>
        </mxCell>
        <mxCell id="LjTkNdP1hN30SCUyjsGu-36" style="edgeStyle=orthogonalEdgeStyle;rounded=0;orthogonalLoop=1;jettySize=auto;html=1;" edge="1" parent="1" source="LjTkNdP1hN30SCUyjsGu-32" target="LjTkNdP1hN30SCUyjsGu-33">
          <mxGeometry relative="1" as="geometry" />
        </mxCell>
        <mxCell id="LjTkNdP1hN30SCUyjsGu-32" value="begin" style="ellipse;whiteSpace=wrap;html=1;aspect=fixed;" vertex="1" parent="1">
          <mxGeometry x="90" y="670" width="80" height="80" as="geometry" />
        </mxCell>
        <mxCell id="LjTkNdP1hN30SCUyjsGu-37" style="edgeStyle=orthogonalEdgeStyle;rounded=0;orthogonalLoop=1;jettySize=auto;html=1;" edge="1" parent="1" source="LjTkNdP1hN30SCUyjsGu-33" target="LjTkNdP1hN30SCUyjsGu-34">
          <mxGeometry relative="1" as="geometry" />
        </mxCell>
        <mxCell id="LjTkNdP1hN30SCUyjsGu-33" value="variaveis" style="whiteSpace=wrap;html=1;aspect=fixed;" vertex="1" parent="1">
          <mxGeometry x="220" y="670" width="80" height="80" as="geometry" />
        </mxCell>
        <mxCell id="LjTkNdP1hN30SCUyjsGu-38" style="edgeStyle=orthogonalEdgeStyle;rounded=0;orthogonalLoop=1;jettySize=auto;html=1;entryX=0;entryY=0.5;entryDx=0;entryDy=0;" edge="1" parent="1" source="LjTkNdP1hN30SCUyjsGu-34" target="LjTkNdP1hN30SCUyjsGu-35">
          <mxGeometry relative="1" as="geometry" />
        </mxCell>
        <mxCell id="LjTkNdP1hN30SCUyjsGu-34" value="comandos" style="whiteSpace=wrap;html=1;aspect=fixed;" vertex="1" parent="1">
          <mxGeometry x="350" y="670" width="80" height="80" as="geometry" />
        </mxCell>
        <mxCell id="LjTkNdP1hN30SCUyjsGu-35" value="end" style="ellipse;whiteSpace=wrap;html=1;aspect=fixed;" vertex="1" parent="1">
          <mxGeometry x="480" y="670" width="80" height="80" as="geometry" />
        </mxCell>
        <mxCell id="LjTkNdP1hN30SCUyjsGu-39" value="declaracao" style="whiteSpace=wrap;html=1;aspect=fixed;" vertex="1" parent="1">
          <mxGeometry x="220" y="830" width="80" height="80" as="geometry" />
        </mxCell>
        <mxCell id="LjTkNdP1hN30SCUyjsGu-43" style="edgeStyle=orthogonalEdgeStyle;rounded=0;orthogonalLoop=1;jettySize=auto;html=1;" edge="1" parent="1" source="LjTkNdP1hN30SCUyjsGu-40" target="LjTkNdP1hN30SCUyjsGu-41">
          <mxGeometry relative="1" as="geometry" />
        </mxCell>
        <mxCell id="LjTkNdP1hN30SCUyjsGu-40" value="declaracao" style="whiteSpace=wrap;html=1;aspect=fixed;" vertex="1" parent="1">
          <mxGeometry x="220" y="940" width="80" height="80" as="geometry" />
        </mxCell>
        <mxCell id="LjTkNdP1hN30SCUyjsGu-41" value="variaveis" style="whiteSpace=wrap;html=1;aspect=fixed;" vertex="1" parent="1">
          <mxGeometry x="350" y="940" width="80" height="80" as="geometry" />
        </mxCell>
        <mxCell id="LjTkNdP1hN30SCUyjsGu-42" value="" style="endArrow=classic;html=1;rounded=0;entryX=0;entryY=0.5;entryDx=0;entryDy=0;" edge="1" parent="1">
          <mxGeometry width="50" height="50" relative="1" as="geometry">
            <mxPoint x="160" y="870" as="sourcePoint" />
            <mxPoint x="220" y="869.5" as="targetPoint" />
            <Array as="points">
              <mxPoint x="180" y="869.5" />
            </Array>
          </mxGeometry>
        </mxCell>
        <mxCell id="LjTkNdP1hN30SCUyjsGu-44" value="" style="endArrow=none;html=1;rounded=0;" edge="1" parent="1">
          <mxGeometry width="50" height="50" relative="1" as="geometry">
            <mxPoint x="180" y="980" as="sourcePoint" />
            <mxPoint x="180" y="870" as="targetPoint" />
          </mxGeometry>
        </mxCell>
        <mxCell id="LjTkNdP1hN30SCUyjsGu-45" value="" style="endArrow=classic;html=1;rounded=0;" edge="1" parent="1">
          <mxGeometry width="50" height="50" relative="1" as="geometry">
            <mxPoint x="180" y="979.5" as="sourcePoint" />
            <mxPoint x="220" y="980" as="targetPoint" />
          </mxGeometry>
        </mxCell>
        <mxCell id="LjTkNdP1hN30SCUyjsGu-49" style="edgeStyle=orthogonalEdgeStyle;rounded=0;orthogonalLoop=1;jettySize=auto;html=1;" edge="1" parent="1" source="LjTkNdP1hN30SCUyjsGu-46" target="LjTkNdP1hN30SCUyjsGu-48">
          <mxGeometry relative="1" as="geometry" />
        </mxCell>
        <mxCell id="LjTkNdP1hN30SCUyjsGu-46" value="tipo" style="ellipse;whiteSpace=wrap;html=1;aspect=fixed;" vertex="1" parent="1">
          <mxGeometry x="220" y="1120" width="80" height="80" as="geometry" />
        </mxCell>
        <mxCell id="LjTkNdP1hN30SCUyjsGu-48" value="ids" style="whiteSpace=wrap;html=1;aspect=fixed;" vertex="1" parent="1">
          <mxGeometry x="350" y="1120" width="80" height="80" as="geometry" />
        </mxCell>
        <mxCell id="LjTkNdP1hN30SCUyjsGu-50" value="" style="endArrow=classic;html=1;rounded=0;entryX=0;entryY=0.5;entryDx=0;entryDy=0;" edge="1" parent="1">
          <mxGeometry width="50" height="50" relative="1" as="geometry">
            <mxPoint x="160" y="1160.5" as="sourcePoint" />
            <mxPoint x="220" y="1160" as="targetPoint" />
            <Array as="points">
              <mxPoint x="180" y="1160" />
            </Array>
          </mxGeometry>
        </mxCell>
        <mxCell id="LjTkNdP1hN30SCUyjsGu-51" value="" style="endArrow=none;html=1;rounded=0;" edge="1" parent="1">
          <mxGeometry width="50" height="50" relative="1" as="geometry">
            <mxPoint x="180" y="1270.5" as="sourcePoint" />
            <mxPoint x="180" y="1160.5" as="targetPoint" />
          </mxGeometry>
        </mxCell>
        <mxCell id="LjTkNdP1hN30SCUyjsGu-52" value="" style="endArrow=classic;html=1;rounded=0;" edge="1" parent="1">
          <mxGeometry width="50" height="50" relative="1" as="geometry">
            <mxPoint x="180" y="1270" as="sourcePoint" />
            <mxPoint x="440" y="1270" as="targetPoint" />
          </mxGeometry>
        </mxCell>
        <mxCell id="LjTkNdP1hN30SCUyjsGu-53" value="id" style="ellipse;whiteSpace=wrap;html=1;aspect=fixed;" vertex="1" parent="1">
          <mxGeometry x="220" y="1360" width="80" height="80" as="geometry" />
        </mxCell>
        <mxCell id="LjTkNdP1hN30SCUyjsGu-59" style="edgeStyle=orthogonalEdgeStyle;rounded=0;orthogonalLoop=1;jettySize=auto;html=1;" edge="1" parent="1" source="LjTkNdP1hN30SCUyjsGu-54">
          <mxGeometry relative="1" as="geometry">
            <mxPoint x="334" y="1510" as="targetPoint" />
          </mxGeometry>
        </mxCell>
        <mxCell id="LjTkNdP1hN30SCUyjsGu-54" value="id" style="ellipse;whiteSpace=wrap;html=1;aspect=fixed;" vertex="1" parent="1">
          <mxGeometry x="220" y="1470" width="80" height="80" as="geometry" />
        </mxCell>
        <mxCell id="LjTkNdP1hN30SCUyjsGu-56" value="" style="endArrow=classic;html=1;rounded=0;entryX=0;entryY=0.5;entryDx=0;entryDy=0;" edge="1" parent="1">
          <mxGeometry width="50" height="50" relative="1" as="geometry">
            <mxPoint x="160" y="1400.5" as="sourcePoint" />
            <mxPoint x="220" y="1400" as="targetPoint" />
            <Array as="points">
              <mxPoint x="180" y="1400" />
            </Array>
          </mxGeometry>
        </mxCell>
        <mxCell id="LjTkNdP1hN30SCUyjsGu-57" value="" style="endArrow=none;html=1;rounded=0;" edge="1" parent="1">
          <mxGeometry width="50" height="50" relative="1" as="geometry">
            <mxPoint x="180" y="1510.5" as="sourcePoint" />
            <mxPoint x="180" y="1400.5" as="targetPoint" />
          </mxGeometry>
        </mxCell>
        <mxCell id="LjTkNdP1hN30SCUyjsGu-58" value="" style="endArrow=classic;html=1;rounded=0;" edge="1" parent="1">
          <mxGeometry width="50" height="50" relative="1" as="geometry">
            <mxPoint x="180" y="1510" as="sourcePoint" />
            <mxPoint x="220" y="1510.5" as="targetPoint" />
          </mxGeometry>
        </mxCell>
        <mxCell id="LjTkNdP1hN30SCUyjsGu-60" value="atribuicao" style="whiteSpace=wrap;html=1;aspect=fixed;" vertex="1" parent="1">
          <mxGeometry x="334" y="1650" width="80" height="80" as="geometry" />
        </mxCell>
        <mxCell id="LjTkNdP1hN30SCUyjsGu-61" value="enquantos" style="whiteSpace=wrap;html=1;aspect=fixed;" vertex="1" parent="1">
          <mxGeometry x="334" y="1754" width="80" height="80" as="geometry" />
        </mxCell>
        <mxCell id="LjTkNdP1hN30SCUyjsGu-62" value="repeticao" style="whiteSpace=wrap;html=1;aspect=fixed;" vertex="1" parent="1">
          <mxGeometry x="334" y="1860" width="80" height="80" as="geometry" />
        </mxCell>
        <mxCell id="LjTkNdP1hN30SCUyjsGu-63" value="controle" style="whiteSpace=wrap;html=1;aspect=fixed;" vertex="1" parent="1">
          <mxGeometry x="334" y="1964" width="80" height="80" as="geometry" />
        </mxCell>
        <mxCell id="LjTkNdP1hN30SCUyjsGu-65" value="ids" style="whiteSpace=wrap;html=1;aspect=fixed;" vertex="1" parent="1">
          <mxGeometry x="460" y="1470" width="80" height="80" as="geometry" />
        </mxCell>
        <mxCell id="LjTkNdP1hN30SCUyjsGu-67" style="edgeStyle=orthogonalEdgeStyle;rounded=0;orthogonalLoop=1;jettySize=auto;html=1;" edge="1" parent="1" source="LjTkNdP1hN30SCUyjsGu-66" target="LjTkNdP1hN30SCUyjsGu-65">
          <mxGeometry relative="1" as="geometry" />
        </mxCell>
        <mxCell id="LjTkNdP1hN30SCUyjsGu-66" value="," style="ellipse;whiteSpace=wrap;html=1;aspect=fixed;" vertex="1" parent="1">
          <mxGeometry x="340" y="1470" width="80" height="80" as="geometry" />
        </mxCell>
        <mxCell id="LjTkNdP1hN30SCUyjsGu-71" value="" style="endArrow=classic;html=1;rounded=0;entryX=0;entryY=0.5;entryDx=0;entryDy=0;" edge="1" parent="1">
          <mxGeometry width="50" height="50" relative="1" as="geometry">
            <mxPoint x="220" y="1690" as="sourcePoint" />
            <mxPoint x="334" y="1690" as="targetPoint" />
            <Array as="points">
              <mxPoint x="294" y="1690" />
            </Array>
          </mxGeometry>
        </mxCell>
        <mxCell id="LjTkNdP1hN30SCUyjsGu-73" value="" style="endArrow=classic;html=1;rounded=0;" edge="1" parent="1">
          <mxGeometry width="50" height="50" relative="1" as="geometry">
            <mxPoint x="240" y="1801" as="sourcePoint" />
            <mxPoint x="334" y="1800.5" as="targetPoint" />
          </mxGeometry>
        </mxCell>
        <mxCell id="LjTkNdP1hN30SCUyjsGu-75" value="" style="endArrow=none;html=1;rounded=0;" edge="1" parent="1">
          <mxGeometry width="50" height="50" relative="1" as="geometry">
            <mxPoint x="240" y="2080" as="sourcePoint" />
            <mxPoint x="240" y="1690" as="targetPoint" />
          </mxGeometry>
        </mxCell>
        <mxCell id="LjTkNdP1hN30SCUyjsGu-77" value="" style="endArrow=classic;html=1;rounded=0;entryX=0;entryY=0.5;entryDx=0;entryDy=0;" edge="1" parent="1" target="LjTkNdP1hN30SCUyjsGu-62">
          <mxGeometry width="50" height="50" relative="1" as="geometry">
            <mxPoint x="240" y="1900" as="sourcePoint" />
            <mxPoint x="320" y="1900" as="targetPoint" />
          </mxGeometry>
        </mxCell>
        <mxCell id="LjTkNdP1hN30SCUyjsGu-78" value="" style="endArrow=classic;html=1;rounded=0;entryX=0;entryY=0.5;entryDx=0;entryDy=0;" edge="1" parent="1" target="LjTkNdP1hN30SCUyjsGu-63">
          <mxGeometry width="50" height="50" relative="1" as="geometry">
            <mxPoint x="240" y="2004" as="sourcePoint" />
            <mxPoint x="314" y="2000.5" as="targetPoint" />
          </mxGeometry>
        </mxCell>
        <mxCell id="LjTkNdP1hN30SCUyjsGu-79" value="" style="endArrow=classic;html=1;rounded=0;" edge="1" parent="1">
          <mxGeometry width="50" height="50" relative="1" as="geometry">
            <mxPoint x="246" y="2080" as="sourcePoint" />
            <mxPoint x="490" y="2080" as="targetPoint" />
          </mxGeometry>
        </mxCell>
        <mxCell id="LjTkNdP1hN30SCUyjsGu-80" value="comando" style="whiteSpace=wrap;html=1;aspect=fixed;" vertex="1" parent="1">
          <mxGeometry x="340" y="2230" width="80" height="80" as="geometry" />
        </mxCell>
        <mxCell id="LjTkNdP1hN30SCUyjsGu-81" value="comandos" style="whiteSpace=wrap;html=1;aspect=fixed;" vertex="1" parent="1">
          <mxGeometry x="340" y="2350" width="80" height="80" as="geometry" />
        </mxCell>
        <mxCell id="LjTkNdP1hN30SCUyjsGu-85" value="" style="endArrow=classic;html=1;rounded=0;entryX=0;entryY=0.5;entryDx=0;entryDy=0;" edge="1" parent="1">
          <mxGeometry width="50" height="50" relative="1" as="geometry">
            <mxPoint x="270" y="2270" as="sourcePoint" />
            <mxPoint x="340" y="2270" as="targetPoint" />
            <Array as="points">
              <mxPoint x="300" y="2270" />
            </Array>
          </mxGeometry>
        </mxCell>
        <mxCell id="LjTkNdP1hN30SCUyjsGu-86" value="" style="endArrow=none;html=1;rounded=0;" edge="1" parent="1">
          <mxGeometry width="50" height="50" relative="1" as="geometry">
            <mxPoint x="300" y="2380.5" as="sourcePoint" />
            <mxPoint x="300" y="2270.5" as="targetPoint" />
          </mxGeometry>
        </mxCell>
        <mxCell id="LjTkNdP1hN30SCUyjsGu-87" value="" style="endArrow=classic;html=1;rounded=0;" edge="1" parent="1">
          <mxGeometry width="50" height="50" relative="1" as="geometry">
            <mxPoint x="300" y="2380" as="sourcePoint" />
            <mxPoint x="340" y="2380.5" as="targetPoint" />
          </mxGeometry>
        </mxCell>
        <mxCell id="LjTkNdP1hN30SCUyjsGu-88" value="id" style="whiteSpace=wrap;html=1;aspect=fixed;" vertex="1" parent="1">
          <mxGeometry x="334" y="2560" width="80" height="80" as="geometry" />
        </mxCell>
        <mxCell id="LjTkNdP1hN30SCUyjsGu-90" value="" style="endArrow=classic;html=1;rounded=0;entryX=0;entryY=0.5;entryDx=0;entryDy=0;" edge="1" parent="1">
          <mxGeometry width="50" height="50" relative="1" as="geometry">
            <mxPoint x="264" y="2600" as="sourcePoint" />
            <mxPoint x="334" y="2600" as="targetPoint" />
            <Array as="points">
              <mxPoint x="294" y="2600" />
            </Array>
          </mxGeometry>
        </mxCell>
        <mxCell id="LjTkNdP1hN30SCUyjsGu-91" value="" style="endArrow=none;html=1;rounded=0;" edge="1" parent="1">
          <mxGeometry width="50" height="50" relative="1" as="geometry">
            <mxPoint x="294" y="2710.5" as="sourcePoint" />
            <mxPoint x="294" y="2600.5" as="targetPoint" />
          </mxGeometry>
        </mxCell>
        <mxCell id="LjTkNdP1hN30SCUyjsGu-92" value="" style="endArrow=classic;html=1;rounded=0;" edge="1" parent="1">
          <mxGeometry width="50" height="50" relative="1" as="geometry">
            <mxPoint x="294" y="2710" as="sourcePoint" />
            <mxPoint x="334" y="2710.5" as="targetPoint" />
          </mxGeometry>
        </mxCell>
        <mxCell id="LjTkNdP1hN30SCUyjsGu-95" style="edgeStyle=orthogonalEdgeStyle;rounded=0;orthogonalLoop=1;jettySize=auto;html=1;" edge="1" parent="1" source="LjTkNdP1hN30SCUyjsGu-93" target="LjTkNdP1hN30SCUyjsGu-94">
          <mxGeometry relative="1" as="geometry" />
        </mxCell>
        <mxCell id="LjTkNdP1hN30SCUyjsGu-93" value=":" style="ellipse;whiteSpace=wrap;html=1;aspect=fixed;" vertex="1" parent="1">
          <mxGeometry x="334" y="2670" width="80" height="80" as="geometry" />
        </mxCell>
        <mxCell id="LjTkNdP1hN30SCUyjsGu-97" style="edgeStyle=orthogonalEdgeStyle;rounded=0;orthogonalLoop=1;jettySize=auto;html=1;entryX=0;entryY=0.5;entryDx=0;entryDy=0;" edge="1" parent="1" source="LjTkNdP1hN30SCUyjsGu-94" target="LjTkNdP1hN30SCUyjsGu-96">
          <mxGeometry relative="1" as="geometry" />
        </mxCell>
        <mxCell id="LjTkNdP1hN30SCUyjsGu-94" value="=" style="ellipse;whiteSpace=wrap;html=1;aspect=fixed;" vertex="1" parent="1">
          <mxGeometry x="450" y="2670" width="80" height="80" as="geometry" />
        </mxCell>
        <mxCell id="LjTkNdP1hN30SCUyjsGu-96" value="expressao" style="whiteSpace=wrap;html=1;aspect=fixed;" vertex="1" parent="1">
          <mxGeometry x="580" y="2670" width="80" height="80" as="geometry" />
        </mxCell>
        <mxCell id="LjTkNdP1hN30SCUyjsGu-98" value="comando" style="whiteSpace=wrap;html=1;aspect=fixed;" vertex="1" parent="1">
          <mxGeometry x="351" y="2850" width="80" height="80" as="geometry" />
        </mxCell>
        <mxCell id="LjTkNdP1hN30SCUyjsGu-99" value="" style="endArrow=classic;html=1;rounded=0;entryX=0;entryY=0.5;entryDx=0;entryDy=0;" edge="1" parent="1">
          <mxGeometry width="50" height="50" relative="1" as="geometry">
            <mxPoint x="281" y="2890" as="sourcePoint" />
            <mxPoint x="351" y="2890" as="targetPoint" />
            <Array as="points">
              <mxPoint x="311" y="2890" />
            </Array>
          </mxGeometry>
        </mxCell>
        <mxCell id="LjTkNdP1hN30SCUyjsGu-100" value="" style="endArrow=none;html=1;rounded=0;" edge="1" parent="1">
          <mxGeometry width="50" height="50" relative="1" as="geometry">
            <mxPoint x="311" y="3000.5" as="sourcePoint" />
            <mxPoint x="311" y="2890.5" as="targetPoint" />
          </mxGeometry>
        </mxCell>
        <mxCell id="LjTkNdP1hN30SCUyjsGu-101" value="" style="endArrow=classic;html=1;rounded=0;" edge="1" parent="1">
          <mxGeometry width="50" height="50" relative="1" as="geometry">
            <mxPoint x="311" y="3000" as="sourcePoint" />
            <mxPoint x="351" y="3000.5" as="targetPoint" />
          </mxGeometry>
        </mxCell>
        <mxCell id="LjTkNdP1hN30SCUyjsGu-104" value="bloco" style="whiteSpace=wrap;html=1;aspect=fixed;" vertex="1" parent="1">
          <mxGeometry x="350" y="2970" width="80" height="80" as="geometry" />
        </mxCell>
        <mxCell id="LjTkNdP1hN30SCUyjsGu-109" style="edgeStyle=orthogonalEdgeStyle;rounded=0;orthogonalLoop=1;jettySize=auto;html=1;entryX=0;entryY=0.5;entryDx=0;entryDy=0;" edge="1" parent="1" source="LjTkNdP1hN30SCUyjsGu-106" target="LjTkNdP1hN30SCUyjsGu-108">
          <mxGeometry relative="1" as="geometry" />
        </mxCell>
        <mxCell id="LjTkNdP1hN30SCUyjsGu-106" value="expressao" style="whiteSpace=wrap;html=1;aspect=fixed;" vertex="1" parent="1">
          <mxGeometry x="350" y="3130" width="80" height="80" as="geometry" />
        </mxCell>
        <mxCell id="LjTkNdP1hN30SCUyjsGu-107" value="" style="endArrow=classic;html=1;rounded=0;entryX=0;entryY=0.5;entryDx=0;entryDy=0;" edge="1" parent="1">
          <mxGeometry width="50" height="50" relative="1" as="geometry">
            <mxPoint x="280" y="3170" as="sourcePoint" />
            <mxPoint x="350" y="3170" as="targetPoint" />
            <Array as="points">
              <mxPoint x="310" y="3170" />
            </Array>
          </mxGeometry>
        </mxCell>
        <mxCell id="LjTkNdP1hN30SCUyjsGu-111" style="edgeStyle=orthogonalEdgeStyle;rounded=0;orthogonalLoop=1;jettySize=auto;html=1;entryX=0;entryY=0.5;entryDx=0;entryDy=0;" edge="1" parent="1" source="LjTkNdP1hN30SCUyjsGu-108" target="LjTkNdP1hN30SCUyjsGu-110">
          <mxGeometry relative="1" as="geometry" />
        </mxCell>
        <mxCell id="LjTkNdP1hN30SCUyjsGu-108" value="op_rel" style="ellipse;whiteSpace=wrap;html=1;aspect=fixed;" vertex="1" parent="1">
          <mxGeometry x="480" y="3130" width="80" height="80" as="geometry" />
        </mxCell>
        <mxCell id="LjTkNdP1hN30SCUyjsGu-110" value="expressao" style="whiteSpace=wrap;html=1;aspect=fixed;" vertex="1" parent="1">
          <mxGeometry x="620" y="3130" width="80" height="80" as="geometry" />
        </mxCell>
        <mxCell id="LjTkNdP1hN30SCUyjsGu-115" style="edgeStyle=orthogonalEdgeStyle;rounded=0;orthogonalLoop=1;jettySize=auto;html=1;" edge="1" parent="1" source="LjTkNdP1hN30SCUyjsGu-112" target="LjTkNdP1hN30SCUyjsGu-114">
          <mxGeometry relative="1" as="geometry" />
        </mxCell>
        <mxCell id="LjTkNdP1hN30SCUyjsGu-112" value="if" style="ellipse;whiteSpace=wrap;html=1;aspect=fixed;" vertex="1" parent="1">
          <mxGeometry x="130" y="3320" width="80" height="80" as="geometry" />
        </mxCell>
        <mxCell id="LjTkNdP1hN30SCUyjsGu-113" value="" style="endArrow=classic;html=1;rounded=0;entryX=0;entryY=0.5;entryDx=0;entryDy=0;" edge="1" parent="1">
          <mxGeometry width="50" height="50" relative="1" as="geometry">
            <mxPoint x="70" y="3360.5" as="sourcePoint" />
            <mxPoint x="130" y="3360" as="targetPoint" />
            <Array as="points">
              <mxPoint x="90" y="3360" />
            </Array>
          </mxGeometry>
        </mxCell>
        <mxCell id="LjTkNdP1hN30SCUyjsGu-117" style="edgeStyle=orthogonalEdgeStyle;rounded=0;orthogonalLoop=1;jettySize=auto;html=1;entryX=0;entryY=0.5;entryDx=0;entryDy=0;" edge="1" parent="1" source="LjTkNdP1hN30SCUyjsGu-114" target="LjTkNdP1hN30SCUyjsGu-116">
          <mxGeometry relative="1" as="geometry" />
        </mxCell>
        <mxCell id="LjTkNdP1hN30SCUyjsGu-114" value="condicao" style="whiteSpace=wrap;html=1;aspect=fixed;" vertex="1" parent="1">
          <mxGeometry x="270" y="3320" width="80" height="80" as="geometry" />
        </mxCell>
        <mxCell id="LjTkNdP1hN30SCUyjsGu-128" style="edgeStyle=orthogonalEdgeStyle;rounded=0;orthogonalLoop=1;jettySize=auto;html=1;" edge="1" parent="1" source="LjTkNdP1hN30SCUyjsGu-116" target="LjTkNdP1hN30SCUyjsGu-124">
          <mxGeometry relative="1" as="geometry" />
        </mxCell>
        <mxCell id="LjTkNdP1hN30SCUyjsGu-116" value="then" style="ellipse;whiteSpace=wrap;html=1;aspect=fixed;" vertex="1" parent="1">
          <mxGeometry x="400" y="3320" width="80" height="80" as="geometry" />
        </mxCell>
        <mxCell id="LjTkNdP1hN30SCUyjsGu-129" style="edgeStyle=orthogonalEdgeStyle;rounded=0;orthogonalLoop=1;jettySize=auto;html=1;entryX=0;entryY=0.5;entryDx=0;entryDy=0;" edge="1" parent="1" source="LjTkNdP1hN30SCUyjsGu-124" target="LjTkNdP1hN30SCUyjsGu-126">
          <mxGeometry relative="1" as="geometry" />
        </mxCell>
        <mxCell id="LjTkNdP1hN30SCUyjsGu-124" value="comando_bloco" style="whiteSpace=wrap;html=1;aspect=fixed;" vertex="1" parent="1">
          <mxGeometry x="530" y="3315" width="90" height="90" as="geometry" />
        </mxCell>
        <mxCell id="LjTkNdP1hN30SCUyjsGu-126" value="controle&#39;" style="whiteSpace=wrap;html=1;aspect=fixed;" vertex="1" parent="1">
          <mxGeometry x="670" y="3320" width="80" height="80" as="geometry" />
        </mxCell>
        <mxCell id="LjTkNdP1hN30SCUyjsGu-133" style="edgeStyle=orthogonalEdgeStyle;rounded=0;orthogonalLoop=1;jettySize=auto;html=1;entryX=0;entryY=0.5;entryDx=0;entryDy=0;" edge="1" parent="1" source="LjTkNdP1hN30SCUyjsGu-130" target="LjTkNdP1hN30SCUyjsGu-132">
          <mxGeometry relative="1" as="geometry" />
        </mxCell>
        <mxCell id="LjTkNdP1hN30SCUyjsGu-130" value="else" style="ellipse;whiteSpace=wrap;html=1;aspect=fixed;" vertex="1" parent="1">
          <mxGeometry x="310" y="3507" width="80" height="80" as="geometry" />
        </mxCell>
        <mxCell id="LjTkNdP1hN30SCUyjsGu-132" value="comando_bloco" style="whiteSpace=wrap;html=1;aspect=fixed;" vertex="1" parent="1">
          <mxGeometry x="457" y="3500.5" width="93" height="93" as="geometry" />
        </mxCell>
        <mxCell id="LjTkNdP1hN30SCUyjsGu-137" value="" style="endArrow=classic;html=1;rounded=0;entryX=0;entryY=0.5;entryDx=0;entryDy=0;" edge="1" parent="1">
          <mxGeometry width="50" height="50" relative="1" as="geometry">
            <mxPoint x="240" y="3550" as="sourcePoint" />
            <mxPoint x="310" y="3550" as="targetPoint" />
            <Array as="points">
              <mxPoint x="270" y="3550" />
            </Array>
          </mxGeometry>
        </mxCell>
        <mxCell id="LjTkNdP1hN30SCUyjsGu-138" value="" style="endArrow=none;html=1;rounded=0;" edge="1" parent="1">
          <mxGeometry width="50" height="50" relative="1" as="geometry">
            <mxPoint x="270" y="3660.5" as="sourcePoint" />
            <mxPoint x="270" y="3550.5" as="targetPoint" />
          </mxGeometry>
        </mxCell>
        <mxCell id="LjTkNdP1hN30SCUyjsGu-139" value="" style="endArrow=classic;html=1;rounded=0;" edge="1" parent="1">
          <mxGeometry width="50" height="50" relative="1" as="geometry">
            <mxPoint x="270" y="3660" as="sourcePoint" />
            <mxPoint x="550" y="3660" as="targetPoint" />
          </mxGeometry>
        </mxCell>
        <mxCell id="LjTkNdP1hN30SCUyjsGu-140" style="edgeStyle=orthogonalEdgeStyle;rounded=0;orthogonalLoop=1;jettySize=auto;html=1;" edge="1" parent="1" source="LjTkNdP1hN30SCUyjsGu-141" target="LjTkNdP1hN30SCUyjsGu-144">
          <mxGeometry relative="1" as="geometry" />
        </mxCell>
        <mxCell id="LjTkNdP1hN30SCUyjsGu-141" value="while" style="ellipse;whiteSpace=wrap;html=1;aspect=fixed;" vertex="1" parent="1">
          <mxGeometry x="320" y="3730" width="80" height="80" as="geometry" />
        </mxCell>
        <mxCell id="LjTkNdP1hN30SCUyjsGu-142" value="" style="endArrow=classic;html=1;rounded=0;entryX=0;entryY=0.5;entryDx=0;entryDy=0;" edge="1" parent="1">
          <mxGeometry width="50" height="50" relative="1" as="geometry">
            <mxPoint x="260" y="3770.5" as="sourcePoint" />
            <mxPoint x="320" y="3770" as="targetPoint" />
            <Array as="points">
              <mxPoint x="280" y="3770" />
            </Array>
          </mxGeometry>
        </mxCell>
        <mxCell id="LjTkNdP1hN30SCUyjsGu-143" style="edgeStyle=orthogonalEdgeStyle;rounded=0;orthogonalLoop=1;jettySize=auto;html=1;entryX=0;entryY=0.5;entryDx=0;entryDy=0;" edge="1" parent="1" source="LjTkNdP1hN30SCUyjsGu-144">
          <mxGeometry relative="1" as="geometry">
            <mxPoint x="590" y="3770" as="targetPoint" />
          </mxGeometry>
        </mxCell>
        <mxCell id="LjTkNdP1hN30SCUyjsGu-144" value="condicao" style="whiteSpace=wrap;html=1;aspect=fixed;" vertex="1" parent="1">
          <mxGeometry x="460" y="3730" width="80" height="80" as="geometry" />
        </mxCell>
        <mxCell id="LjTkNdP1hN30SCUyjsGu-147" value="comando_bloco" style="whiteSpace=wrap;html=1;aspect=fixed;" vertex="1" parent="1">
          <mxGeometry x="590" y="3730" width="90" height="90" as="geometry" />
        </mxCell>
        <mxCell id="LjTkNdP1hN30SCUyjsGu-152" style="edgeStyle=orthogonalEdgeStyle;rounded=0;orthogonalLoop=1;jettySize=auto;html=1;" edge="1" parent="1" source="LjTkNdP1hN30SCUyjsGu-149" target="LjTkNdP1hN30SCUyjsGu-151">
          <mxGeometry relative="1" as="geometry" />
        </mxCell>
        <mxCell id="LjTkNdP1hN30SCUyjsGu-149" value="repeat" style="ellipse;whiteSpace=wrap;html=1;aspect=fixed;" vertex="1" parent="1">
          <mxGeometry x="150" y="3925" width="80" height="80" as="geometry" />
        </mxCell>
        <mxCell id="LjTkNdP1hN30SCUyjsGu-150" value="" style="endArrow=classic;html=1;rounded=0;entryX=0;entryY=0.5;entryDx=0;entryDy=0;" edge="1" parent="1">
          <mxGeometry width="50" height="50" relative="1" as="geometry">
            <mxPoint x="90" y="3965.5" as="sourcePoint" />
            <mxPoint x="150" y="3965" as="targetPoint" />
            <Array as="points">
              <mxPoint x="110" y="3965" />
            </Array>
          </mxGeometry>
        </mxCell>
        <mxCell id="LjTkNdP1hN30SCUyjsGu-154" style="edgeStyle=orthogonalEdgeStyle;rounded=0;orthogonalLoop=1;jettySize=auto;html=1;entryX=0;entryY=0.5;entryDx=0;entryDy=0;" edge="1" parent="1" source="LjTkNdP1hN30SCUyjsGu-151" target="LjTkNdP1hN30SCUyjsGu-153">
          <mxGeometry relative="1" as="geometry" />
        </mxCell>
        <mxCell id="LjTkNdP1hN30SCUyjsGu-151" value="comando_bloco" style="whiteSpace=wrap;html=1;aspect=fixed;" vertex="1" parent="1">
          <mxGeometry x="281" y="3920" width="90" height="90" as="geometry" />
        </mxCell>
        <mxCell id="LjTkNdP1hN30SCUyjsGu-156" style="edgeStyle=orthogonalEdgeStyle;rounded=0;orthogonalLoop=1;jettySize=auto;html=1;entryX=0;entryY=0.5;entryDx=0;entryDy=0;" edge="1" parent="1" source="LjTkNdP1hN30SCUyjsGu-153" target="LjTkNdP1hN30SCUyjsGu-155">
          <mxGeometry relative="1" as="geometry" />
        </mxCell>
        <mxCell id="LjTkNdP1hN30SCUyjsGu-153" value="until" style="ellipse;whiteSpace=wrap;html=1;aspect=fixed;" vertex="1" parent="1">
          <mxGeometry x="420" y="3925" width="80" height="80" as="geometry" />
        </mxCell>
        <mxCell id="LjTkNdP1hN30SCUyjsGu-158" style="edgeStyle=orthogonalEdgeStyle;rounded=0;orthogonalLoop=1;jettySize=auto;html=1;entryX=0;entryY=0.5;entryDx=0;entryDy=0;" edge="1" parent="1" source="LjTkNdP1hN30SCUyjsGu-155" target="LjTkNdP1hN30SCUyjsGu-157">
          <mxGeometry relative="1" as="geometry" />
        </mxCell>
        <mxCell id="LjTkNdP1hN30SCUyjsGu-155" value="condicao" style="whiteSpace=wrap;html=1;aspect=fixed;" vertex="1" parent="1">
          <mxGeometry x="550" y="3925" width="80" height="80" as="geometry" />
        </mxCell>
        <mxCell id="LjTkNdP1hN30SCUyjsGu-157" value=";" style="ellipse;whiteSpace=wrap;html=1;aspect=fixed;" vertex="1" parent="1">
          <mxGeometry x="670" y="3925" width="80" height="80" as="geometry" />
        </mxCell>
        <mxCell id="LjTkNdP1hN30SCUyjsGu-162" style="edgeStyle=orthogonalEdgeStyle;rounded=0;orthogonalLoop=1;jettySize=auto;html=1;" edge="1" parent="1" source="LjTkNdP1hN30SCUyjsGu-159" target="LjTkNdP1hN30SCUyjsGu-161">
          <mxGeometry relative="1" as="geometry" />
        </mxCell>
        <mxCell id="LjTkNdP1hN30SCUyjsGu-159" value="expressao_p2" style="whiteSpace=wrap;html=1;aspect=fixed;" vertex="1" parent="1">
          <mxGeometry x="280" y="4092" width="80" height="80" as="geometry" />
        </mxCell>
        <mxCell id="LjTkNdP1hN30SCUyjsGu-160" value="" style="endArrow=classic;html=1;rounded=0;entryX=0;entryY=0.5;entryDx=0;entryDy=0;" edge="1" parent="1">
          <mxGeometry width="50" height="50" relative="1" as="geometry">
            <mxPoint x="210" y="4132" as="sourcePoint" />
            <mxPoint x="280" y="4132" as="targetPoint" />
            <Array as="points">
              <mxPoint x="240" y="4132" />
            </Array>
          </mxGeometry>
        </mxCell>
        <mxCell id="LjTkNdP1hN30SCUyjsGu-161" value="expressao&#39;" style="whiteSpace=wrap;html=1;aspect=fixed;" vertex="1" parent="1">
          <mxGeometry x="430" y="4092" width="80" height="80" as="geometry" />
        </mxCell>
        <mxCell id="LjTkNdP1hN30SCUyjsGu-168" style="edgeStyle=orthogonalEdgeStyle;rounded=0;orthogonalLoop=1;jettySize=auto;html=1;" edge="1" parent="1" source="LjTkNdP1hN30SCUyjsGu-169">
          <mxGeometry relative="1" as="geometry">
            <mxPoint x="281" y="4275" as="targetPoint" />
          </mxGeometry>
        </mxCell>
        <mxCell id="LjTkNdP1hN30SCUyjsGu-169" value="+" style="ellipse;whiteSpace=wrap;html=1;aspect=fixed;" vertex="1" parent="1">
          <mxGeometry x="150" y="4235" width="80" height="80" as="geometry" />
        </mxCell>
        <mxCell id="LjTkNdP1hN30SCUyjsGu-170" value="" style="endArrow=classic;html=1;rounded=0;entryX=0;entryY=0.5;entryDx=0;entryDy=0;" edge="1" parent="1">
          <mxGeometry width="50" height="50" relative="1" as="geometry">
            <mxPoint x="70" y="4275" as="sourcePoint" />
            <mxPoint x="150" y="4275" as="targetPoint" />
            <Array as="points">
              <mxPoint x="110" y="4275" />
            </Array>
          </mxGeometry>
        </mxCell>
        <mxCell id="LjTkNdP1hN30SCUyjsGu-172" style="edgeStyle=orthogonalEdgeStyle;rounded=0;orthogonalLoop=1;jettySize=auto;html=1;" edge="1" parent="1" source="LjTkNdP1hN30SCUyjsGu-173" target="LjTkNdP1hN30SCUyjsGu-174">
          <mxGeometry relative="1" as="geometry" />
        </mxCell>
        <mxCell id="LjTkNdP1hN30SCUyjsGu-173" value="expressao_p2" style="whiteSpace=wrap;html=1;aspect=fixed;" vertex="1" parent="1">
          <mxGeometry x="280" y="4240" width="80" height="80" as="geometry" />
        </mxCell>
        <mxCell id="LjTkNdP1hN30SCUyjsGu-174" value="expressao&#39;" style="whiteSpace=wrap;html=1;aspect=fixed;" vertex="1" parent="1">
          <mxGeometry x="430" y="4240" width="80" height="80" as="geometry" />
        </mxCell>
        <mxCell id="LjTkNdP1hN30SCUyjsGu-177" value="" style="endArrow=classic;html=1;rounded=0;" edge="1" parent="1">
          <mxGeometry width="50" height="50" relative="1" as="geometry">
            <mxPoint x="90" y="4390" as="sourcePoint" />
            <mxPoint x="160" y="4390" as="targetPoint" />
          </mxGeometry>
        </mxCell>
        <mxCell id="LjTkNdP1hN30SCUyjsGu-178" value="-" style="ellipse;whiteSpace=wrap;html=1;aspect=fixed;" vertex="1" parent="1">
          <mxGeometry x="160" y="4350" width="80" height="80" as="geometry" />
        </mxCell>
        <mxCell id="LjTkNdP1hN30SCUyjsGu-179" style="edgeStyle=orthogonalEdgeStyle;rounded=0;orthogonalLoop=1;jettySize=auto;html=1;" edge="1" parent="1">
          <mxGeometry relative="1" as="geometry">
            <mxPoint x="240" y="4395" as="sourcePoint" />
            <mxPoint x="291" y="4395" as="targetPoint" />
          </mxGeometry>
        </mxCell>
        <mxCell id="LjTkNdP1hN30SCUyjsGu-180" style="edgeStyle=orthogonalEdgeStyle;rounded=0;orthogonalLoop=1;jettySize=auto;html=1;" edge="1" parent="1" source="LjTkNdP1hN30SCUyjsGu-181" target="LjTkNdP1hN30SCUyjsGu-182">
          <mxGeometry relative="1" as="geometry" />
        </mxCell>
        <mxCell id="LjTkNdP1hN30SCUyjsGu-181" value="expressao_p2" style="whiteSpace=wrap;html=1;aspect=fixed;" vertex="1" parent="1">
          <mxGeometry x="290" y="4360" width="80" height="80" as="geometry" />
        </mxCell>
        <mxCell id="LjTkNdP1hN30SCUyjsGu-182" value="expressao&#39;" style="whiteSpace=wrap;html=1;aspect=fixed;" vertex="1" parent="1">
          <mxGeometry x="440" y="4360" width="80" height="80" as="geometry" />
        </mxCell>
        <mxCell id="LjTkNdP1hN30SCUyjsGu-183" value="" style="endArrow=none;html=1;rounded=0;" edge="1" parent="1">
          <mxGeometry width="50" height="50" relative="1" as="geometry">
            <mxPoint x="90" y="4450" as="sourcePoint" />
            <mxPoint x="90" y="4280" as="targetPoint" />
          </mxGeometry>
        </mxCell>
        <mxCell id="LjTkNdP1hN30SCUyjsGu-184" value="" style="endArrow=classic;html=1;rounded=0;" edge="1" parent="1">
          <mxGeometry width="50" height="50" relative="1" as="geometry">
            <mxPoint x="90" y="4450" as="sourcePoint" />
            <mxPoint x="570" y="4450" as="targetPoint" />
          </mxGeometry>
        </mxCell>
        <mxCell id="LjTkNdP1hN30SCUyjsGu-185" style="edgeStyle=orthogonalEdgeStyle;rounded=0;orthogonalLoop=1;jettySize=auto;html=1;" edge="1" parent="1" source="LjTkNdP1hN30SCUyjsGu-186" target="LjTkNdP1hN30SCUyjsGu-188">
          <mxGeometry relative="1" as="geometry" />
        </mxCell>
        <mxCell id="LjTkNdP1hN30SCUyjsGu-186" value="expressao_p3" style="whiteSpace=wrap;html=1;aspect=fixed;" vertex="1" parent="1">
          <mxGeometry x="270" y="4520" width="80" height="80" as="geometry" />
        </mxCell>
        <mxCell id="LjTkNdP1hN30SCUyjsGu-187" value="" style="endArrow=classic;html=1;rounded=0;entryX=0;entryY=0.5;entryDx=0;entryDy=0;" edge="1" parent="1">
          <mxGeometry width="50" height="50" relative="1" as="geometry">
            <mxPoint x="200" y="4560" as="sourcePoint" />
            <mxPoint x="270" y="4560" as="targetPoint" />
            <Array as="points">
              <mxPoint x="230" y="4560" />
            </Array>
          </mxGeometry>
        </mxCell>
        <mxCell id="LjTkNdP1hN30SCUyjsGu-188" value="expressao_p2&#39;" style="whiteSpace=wrap;html=1;aspect=fixed;" vertex="1" parent="1">
          <mxGeometry x="420" y="4520" width="80" height="80" as="geometry" />
        </mxCell>
        <mxCell id="LjTkNdP1hN30SCUyjsGu-189" style="edgeStyle=orthogonalEdgeStyle;rounded=0;orthogonalLoop=1;jettySize=auto;html=1;" edge="1" parent="1" source="LjTkNdP1hN30SCUyjsGu-190">
          <mxGeometry relative="1" as="geometry">
            <mxPoint x="301" y="4720" as="targetPoint" />
          </mxGeometry>
        </mxCell>
        <mxCell id="LjTkNdP1hN30SCUyjsGu-190" value="*" style="ellipse;whiteSpace=wrap;html=1;aspect=fixed;" vertex="1" parent="1">
          <mxGeometry x="170" y="4680" width="80" height="80" as="geometry" />
        </mxCell>
        <mxCell id="LjTkNdP1hN30SCUyjsGu-191" value="" style="endArrow=classic;html=1;rounded=0;entryX=0;entryY=0.5;entryDx=0;entryDy=0;" edge="1" parent="1">
          <mxGeometry width="50" height="50" relative="1" as="geometry">
            <mxPoint x="90" y="4720" as="sourcePoint" />
            <mxPoint x="170" y="4720" as="targetPoint" />
            <Array as="points">
              <mxPoint x="130" y="4720" />
            </Array>
          </mxGeometry>
        </mxCell>
        <mxCell id="LjTkNdP1hN30SCUyjsGu-192" style="edgeStyle=orthogonalEdgeStyle;rounded=0;orthogonalLoop=1;jettySize=auto;html=1;" edge="1" parent="1" source="LjTkNdP1hN30SCUyjsGu-193" target="LjTkNdP1hN30SCUyjsGu-194">
          <mxGeometry relative="1" as="geometry" />
        </mxCell>
        <mxCell id="LjTkNdP1hN30SCUyjsGu-193" value="expressao_p3" style="whiteSpace=wrap;html=1;aspect=fixed;" vertex="1" parent="1">
          <mxGeometry x="300" y="4685" width="80" height="80" as="geometry" />
        </mxCell>
        <mxCell id="LjTkNdP1hN30SCUyjsGu-194" value="expressao_p2&#39;" style="whiteSpace=wrap;html=1;aspect=fixed;" vertex="1" parent="1">
          <mxGeometry x="450" y="4685" width="80" height="80" as="geometry" />
        </mxCell>
        <mxCell id="LjTkNdP1hN30SCUyjsGu-196" value="" style="endArrow=classic;html=1;rounded=0;" edge="1" parent="1">
          <mxGeometry width="50" height="50" relative="1" as="geometry">
            <mxPoint x="110" y="4835" as="sourcePoint" />
            <mxPoint x="180" y="4835" as="targetPoint" />
          </mxGeometry>
        </mxCell>
        <mxCell id="LjTkNdP1hN30SCUyjsGu-197" value="/" style="ellipse;whiteSpace=wrap;html=1;aspect=fixed;" vertex="1" parent="1">
          <mxGeometry x="180" y="4795" width="80" height="80" as="geometry" />
        </mxCell>
        <mxCell id="LjTkNdP1hN30SCUyjsGu-198" style="edgeStyle=orthogonalEdgeStyle;rounded=0;orthogonalLoop=1;jettySize=auto;html=1;" edge="1" parent="1">
          <mxGeometry relative="1" as="geometry">
            <mxPoint x="260" y="4840" as="sourcePoint" />
            <mxPoint x="311" y="4840" as="targetPoint" />
          </mxGeometry>
        </mxCell>
        <mxCell id="LjTkNdP1hN30SCUyjsGu-199" style="edgeStyle=orthogonalEdgeStyle;rounded=0;orthogonalLoop=1;jettySize=auto;html=1;" edge="1" parent="1" source="LjTkNdP1hN30SCUyjsGu-200" target="LjTkNdP1hN30SCUyjsGu-201">
          <mxGeometry relative="1" as="geometry" />
        </mxCell>
        <mxCell id="LjTkNdP1hN30SCUyjsGu-200" value="expressao_p3" style="whiteSpace=wrap;html=1;aspect=fixed;" vertex="1" parent="1">
          <mxGeometry x="310" y="4805" width="80" height="80" as="geometry" />
        </mxCell>
        <mxCell id="LjTkNdP1hN30SCUyjsGu-201" value="expressao_p2&#39;" style="whiteSpace=wrap;html=1;aspect=fixed;" vertex="1" parent="1">
          <mxGeometry x="460" y="4805" width="80" height="80" as="geometry" />
        </mxCell>
        <mxCell id="LjTkNdP1hN30SCUyjsGu-202" value="" style="endArrow=none;html=1;rounded=0;" edge="1" parent="1">
          <mxGeometry width="50" height="50" relative="1" as="geometry">
            <mxPoint x="110" y="4895" as="sourcePoint" />
            <mxPoint x="110" y="4725" as="targetPoint" />
          </mxGeometry>
        </mxCell>
        <mxCell id="LjTkNdP1hN30SCUyjsGu-203" value="" style="endArrow=classic;html=1;rounded=0;" edge="1" parent="1">
          <mxGeometry width="50" height="50" relative="1" as="geometry">
            <mxPoint x="110" y="4895" as="sourcePoint" />
            <mxPoint x="590" y="4895" as="targetPoint" />
          </mxGeometry>
        </mxCell>
        <mxCell id="LjTkNdP1hN30SCUyjsGu-204" style="edgeStyle=orthogonalEdgeStyle;rounded=0;orthogonalLoop=1;jettySize=auto;html=1;" edge="1" parent="1" source="LjTkNdP1hN30SCUyjsGu-205" target="LjTkNdP1hN30SCUyjsGu-207">
          <mxGeometry relative="1" as="geometry" />
        </mxCell>
        <mxCell id="LjTkNdP1hN30SCUyjsGu-205" value="expressao_p4" style="whiteSpace=wrap;html=1;aspect=fixed;" vertex="1" parent="1">
          <mxGeometry x="300" y="4990" width="80" height="80" as="geometry" />
        </mxCell>
        <mxCell id="LjTkNdP1hN30SCUyjsGu-206" value="" style="endArrow=classic;html=1;rounded=0;entryX=0;entryY=0.5;entryDx=0;entryDy=0;" edge="1" parent="1">
          <mxGeometry width="50" height="50" relative="1" as="geometry">
            <mxPoint x="230" y="5030" as="sourcePoint" />
            <mxPoint x="300" y="5030" as="targetPoint" />
            <Array as="points">
              <mxPoint x="260" y="5030" />
            </Array>
          </mxGeometry>
        </mxCell>
        <mxCell id="LjTkNdP1hN30SCUyjsGu-207" value="expressao_p3&#39;" style="whiteSpace=wrap;html=1;aspect=fixed;" vertex="1" parent="1">
          <mxGeometry x="450" y="4990" width="80" height="80" as="geometry" />
        </mxCell>
        <mxCell id="LjTkNdP1hN30SCUyjsGu-208" style="edgeStyle=orthogonalEdgeStyle;rounded=0;orthogonalLoop=1;jettySize=auto;html=1;" edge="1" parent="1" source="LjTkNdP1hN30SCUyjsGu-209">
          <mxGeometry relative="1" as="geometry">
            <mxPoint x="375" y="5170" as="targetPoint" />
          </mxGeometry>
        </mxCell>
        <mxCell id="LjTkNdP1hN30SCUyjsGu-209" value="^" style="ellipse;whiteSpace=wrap;html=1;aspect=fixed;" vertex="1" parent="1">
          <mxGeometry x="244" y="5130" width="80" height="80" as="geometry" />
        </mxCell>
        <mxCell id="LjTkNdP1hN30SCUyjsGu-210" value="" style="endArrow=classic;html=1;rounded=0;entryX=0;entryY=0.5;entryDx=0;entryDy=0;" edge="1" parent="1">
          <mxGeometry width="50" height="50" relative="1" as="geometry">
            <mxPoint x="164" y="5170" as="sourcePoint" />
            <mxPoint x="244" y="5170" as="targetPoint" />
            <Array as="points">
              <mxPoint x="204" y="5170" />
            </Array>
          </mxGeometry>
        </mxCell>
        <mxCell id="LjTkNdP1hN30SCUyjsGu-212" value="expressao_p4" style="whiteSpace=wrap;html=1;aspect=fixed;" vertex="1" parent="1">
          <mxGeometry x="374" y="5135" width="80" height="80" as="geometry" />
        </mxCell>
        <mxCell id="LjTkNdP1hN30SCUyjsGu-215" value="" style="endArrow=classic;html=1;rounded=0;" edge="1" parent="1">
          <mxGeometry width="50" height="50" relative="1" as="geometry">
            <mxPoint x="180" y="5285" as="sourcePoint" />
            <mxPoint x="254" y="5285" as="targetPoint" />
          </mxGeometry>
        </mxCell>
        <mxCell id="LjTkNdP1hN30SCUyjsGu-219" value="expressao_p3&#39;" style="whiteSpace=wrap;html=1;aspect=fixed;" vertex="1" parent="1">
          <mxGeometry x="254" y="5250" width="80" height="80" as="geometry" />
        </mxCell>
        <mxCell id="LjTkNdP1hN30SCUyjsGu-221" value="" style="endArrow=none;html=1;rounded=0;" edge="1" parent="1">
          <mxGeometry width="50" height="50" relative="1" as="geometry">
            <mxPoint x="184" y="5345" as="sourcePoint" />
            <mxPoint x="184" y="5175" as="targetPoint" />
          </mxGeometry>
        </mxCell>
        <mxCell id="LjTkNdP1hN30SCUyjsGu-222" value="" style="endArrow=classic;html=1;rounded=0;" edge="1" parent="1">
          <mxGeometry width="50" height="50" relative="1" as="geometry">
            <mxPoint x="184" y="5345" as="sourcePoint" />
            <mxPoint x="664" y="5345" as="targetPoint" />
          </mxGeometry>
        </mxCell>
        <mxCell id="LjTkNdP1hN30SCUyjsGu-224" value="id" style="ellipse;whiteSpace=wrap;html=1;aspect=fixed;" vertex="1" parent="1">
          <mxGeometry x="200" y="5390" width="80" height="80" as="geometry" />
        </mxCell>
        <mxCell id="LjTkNdP1hN30SCUyjsGu-225" value="" style="endArrow=classic;html=1;rounded=0;entryX=0;entryY=0.5;entryDx=0;entryDy=0;" edge="1" parent="1" target="LjTkNdP1hN30SCUyjsGu-224">
          <mxGeometry width="50" height="50" relative="1" as="geometry">
            <mxPoint x="80" y="5430" as="sourcePoint" />
            <mxPoint x="190" y="5430" as="targetPoint" />
            <Array as="points">
              <mxPoint x="150" y="5430" />
            </Array>
          </mxGeometry>
        </mxCell>
        <mxCell id="LjTkNdP1hN30SCUyjsGu-230" value="" style="endArrow=classic;html=1;rounded=0;" edge="1" parent="1">
          <mxGeometry width="50" height="50" relative="1" as="geometry">
            <mxPoint x="100" y="5545" as="sourcePoint" />
            <mxPoint x="200" y="5545" as="targetPoint" />
          </mxGeometry>
        </mxCell>
        <mxCell id="LjTkNdP1hN30SCUyjsGu-231" value="numero" style="ellipse;whiteSpace=wrap;html=1;aspect=fixed;" vertex="1" parent="1">
          <mxGeometry x="201" y="5505" width="80" height="80" as="geometry" />
        </mxCell>
        <mxCell id="LjTkNdP1hN30SCUyjsGu-238" value="letra" style="ellipse;whiteSpace=wrap;html=1;aspect=fixed;" vertex="1" parent="1">
          <mxGeometry x="200" y="5610" width="80" height="80" as="geometry" />
        </mxCell>
        <mxCell id="LjTkNdP1hN30SCUyjsGu-242" style="edgeStyle=orthogonalEdgeStyle;rounded=0;orthogonalLoop=1;jettySize=auto;html=1;entryX=0;entryY=0.5;entryDx=0;entryDy=0;" edge="1" parent="1" source="LjTkNdP1hN30SCUyjsGu-239" target="LjTkNdP1hN30SCUyjsGu-240">
          <mxGeometry relative="1" as="geometry" />
        </mxCell>
        <mxCell id="LjTkNdP1hN30SCUyjsGu-239" value="(" style="ellipse;whiteSpace=wrap;html=1;aspect=fixed;" vertex="1" parent="1">
          <mxGeometry x="201" y="5720" width="80" height="80" as="geometry" />
        </mxCell>
        <mxCell id="LjTkNdP1hN30SCUyjsGu-243" style="edgeStyle=orthogonalEdgeStyle;rounded=0;orthogonalLoop=1;jettySize=auto;html=1;" edge="1" parent="1" source="LjTkNdP1hN30SCUyjsGu-240" target="LjTkNdP1hN30SCUyjsGu-241">
          <mxGeometry relative="1" as="geometry" />
        </mxCell>
        <mxCell id="LjTkNdP1hN30SCUyjsGu-240" value="expressao" style="whiteSpace=wrap;html=1;aspect=fixed;" vertex="1" parent="1">
          <mxGeometry x="320" y="5720" width="80" height="80" as="geometry" />
        </mxCell>
        <mxCell id="LjTkNdP1hN30SCUyjsGu-241" value=")" style="ellipse;whiteSpace=wrap;html=1;aspect=fixed;" vertex="1" parent="1">
          <mxGeometry x="440" y="5720" width="80" height="80" as="geometry" />
        </mxCell>
        <mxCell id="LjTkNdP1hN30SCUyjsGu-244" value="-" style="ellipse;whiteSpace=wrap;html=1;aspect=fixed;" vertex="1" parent="1">
          <mxGeometry x="200" y="5830" width="80" height="80" as="geometry" />
        </mxCell>
        <mxCell id="LjTkNdP1hN30SCUyjsGu-245" value="expressao_p4" style="whiteSpace=wrap;html=1;aspect=fixed;" vertex="1" parent="1">
          <mxGeometry x="320" y="5830" width="80" height="80" as="geometry" />
        </mxCell>
        <mxCell id="LjTkNdP1hN30SCUyjsGu-248" value="" style="endArrow=none;html=1;rounded=0;" edge="1" parent="1">
          <mxGeometry width="50" height="50" relative="1" as="geometry">
            <mxPoint x="100" y="5870" as="sourcePoint" />
            <mxPoint x="100" y="5430" as="targetPoint" />
          </mxGeometry>
        </mxCell>
        <mxCell id="LjTkNdP1hN30SCUyjsGu-249" value="" style="endArrow=classic;html=1;rounded=0;entryX=0;entryY=0.5;entryDx=0;entryDy=0;" edge="1" parent="1" target="LjTkNdP1hN30SCUyjsGu-238">
          <mxGeometry width="50" height="50" relative="1" as="geometry">
            <mxPoint x="100" y="5650" as="sourcePoint" />
            <mxPoint x="180" y="5650" as="targetPoint" />
          </mxGeometry>
        </mxCell>
        <mxCell id="LjTkNdP1hN30SCUyjsGu-250" value="" style="endArrow=classic;html=1;rounded=0;entryX=0;entryY=0.5;entryDx=0;entryDy=0;" edge="1" parent="1">
          <mxGeometry width="50" height="50" relative="1" as="geometry">
            <mxPoint x="100" y="5760" as="sourcePoint" />
            <mxPoint x="201" y="5760" as="targetPoint" />
            <Array as="points">
              <mxPoint x="171" y="5760" />
            </Array>
          </mxGeometry>
        </mxCell>
        <mxCell id="LjTkNdP1hN30SCUyjsGu-251" value="" style="endArrow=classic;html=1;rounded=0;entryX=0;entryY=0.5;entryDx=0;entryDy=0;" edge="1" parent="1" target="LjTkNdP1hN30SCUyjsGu-244">
          <mxGeometry width="50" height="50" relative="1" as="geometry">
            <mxPoint x="99" y="5869.5" as="sourcePoint" />
            <mxPoint x="180" y="5869.5" as="targetPoint" />
            <Array as="points">
              <mxPoint x="150" y="5869.5" />
            </Array>
          </mxGeometry>
        </mxCell>
        <mxCell id="wwMn9CoPMmTfkZKN9CpG-1" value="funcoes" style="whiteSpace=wrap;html=1;aspect=fixed;" vertex="1" parent="1">
          <mxGeometry x="270" y="200" width="80" height="80" as="geometry" />
        </mxCell>
        <mxCell id="wwMn9CoPMmTfkZKN9CpG-3" value="" style="endArrow=classic;html=1;rounded=0;entryX=0;entryY=0.5;entryDx=0;entryDy=0;" edge="1" parent="1">
          <mxGeometry width="50" height="50" relative="1" as="geometry">
            <mxPoint x="210" y="240" as="sourcePoint" />
            <mxPoint x="270" y="239.5" as="targetPoint" />
            <Array as="points">
              <mxPoint x="230" y="239.5" />
            </Array>
          </mxGeometry>
        </mxCell>
        <mxCell id="wwMn9CoPMmTfkZKN9CpG-4" value="" style="endArrow=none;html=1;rounded=0;" edge="1" parent="1">
          <mxGeometry width="50" height="50" relative="1" as="geometry">
            <mxPoint x="230" y="350" as="sourcePoint" />
            <mxPoint x="230" y="240" as="targetPoint" />
          </mxGeometry>
        </mxCell>
        <mxCell id="wwMn9CoPMmTfkZKN9CpG-5" value="" style="endArrow=classic;html=1;rounded=0;" edge="1" parent="1">
          <mxGeometry width="50" height="50" relative="1" as="geometry">
            <mxPoint x="230" y="349.5" as="sourcePoint" />
            <mxPoint x="390" y="350" as="targetPoint" />
          </mxGeometry>
        </mxCell>
      </root>
    </mxGraphModel>
  </diagram>
</mxfile>
